<svg xmlns="http://www.w3.org/2000/svg" xmlns:xlink="http://www.w3.org/1999/xlink" width="500" zoomAndPan="magnify" viewBox="0 0 375 374.999991" height="500" preserveAspectRatio="xMidYMid meet" version="1.0"><defs><g/><clipPath id="id1"><path d="M 216.523438 135.148438 L 306.300781 135.148438 L 306.300781 249.898438 L 216.523438 249.898438 Z M 216.523438 135.148438 " clip-rule="nonzero"/></clipPath></defs><g clip-path="url(#id1)"><path fill="rgb(0%, 0%, 0%)" d="M 216.300781 180.09375 C 216.300781 155.394531 236.492188 135.292969 261.300781 135.292969 C 286.113281 135.292969 306.300781 155.394531 306.300781 180.09375 C 306.300781 204.222656 287.054688 223.957031 263.027344 224.851562 L 263.027344 247.46875 C 263.027344 248.726562 261.992188 249.757812 260.726562 249.757812 C 259.460938 249.757812 258.425781 248.726562 258.425781 247.46875 L 258.425781 224.804688 C 234.949219 223.316406 216.300781 203.835938 216.300781 180.09375 Z M 258.425781 220.226562 L 258.425781 196.601562 L 247.6875 186.710938 C 246.746094 185.839844 246.699219 184.398438 247.574219 183.484375 C 248.449219 182.542969 249.898438 182.5 250.816406 183.367188 L 258.425781 190.375 L 258.425781 165.992188 C 258.425781 164.734375 259.460938 163.703125 260.726562 163.703125 C 261.992188 163.703125 263.027344 164.734375 263.027344 165.992188 L 263.027344 177.804688 L 270.382812 171.003906 C 271.328125 170.136719 272.777344 170.203125 273.625 171.121094 C 274.5 172.058594 274.429688 173.5 273.511719 174.347656 L 263.027344 184.007812 L 263.027344 220.25 C 284.503906 219.378906 301.703125 201.707031 301.703125 180.09375 C 301.703125 157.910156 283.582031 139.871094 261.300781 139.871094 C 239.019531 139.871094 220.902344 157.910156 220.902344 180.09375 C 220.902344 201.316406 237.480469 218.738281 258.425781 220.226562 Z M 258.425781 220.226562 " fill-opacity="1" fill-rule="nonzero"/></g><path fill="rgb(0%, 66.668701%, 33.329773%)" d="M 97.398438 110.132812 L 175.742188 110.132812 C 185.292969 110.132812 194.453125 113.921875 201.207031 120.664062 C 207.957031 127.402344 211.75 136.546875 211.75 146.082031 L 211.75 217.976562 C 211.75 227.511719 207.957031 236.65625 201.207031 243.398438 C 194.453125 250.140625 185.292969 253.925781 175.742188 253.925781 L 97.398438 253.925781 C 77.511719 253.925781 61.390625 237.832031 61.390625 217.976562 L 61.390625 146.082031 C 61.390625 126.226562 77.511719 110.132812 97.398438 110.132812 " fill-opacity="1" fill-rule="nonzero"/><g fill="rgb(100%, 100%, 100%)" fill-opacity="1"><g transform="translate(68.696141, 223.280011)"><g><path d="M 62.15625 -56.09375 C 61.050781 -59.96875 59.003906 -63.003906 56.015625 -65.203125 C 53.035156 -67.410156 49.296875 -68.515625 44.796875 -68.515625 C 38.453125 -68.515625 33.316406 -66.171875 29.390625 -61.484375 C 25.472656 -56.804688 23.515625 -50.148438 23.515625 -41.515625 C 23.515625 -32.859375 25.441406 -26.164062 29.296875 -21.4375 C 33.148438 -16.71875 38.367188 -14.359375 44.953125 -14.359375 C 50.785156 -14.359375 55.363281 -15.875 58.6875 -18.90625 C 62.019531 -21.945312 63.742188 -26.03125 63.859375 -31.15625 L 46.046875 -31.15625 L 46.046875 -44.34375 L 80.734375 -44.34375 L 80.734375 -33.90625 C 80.734375 -26.65625 79.191406 -20.40625 76.109375 -15.15625 C 73.035156 -9.90625 68.804688 -5.875 63.421875 -3.0625 C 58.046875 -0.257812 51.863281 1.140625 44.875 1.140625 C 37.101562 1.140625 30.273438 -0.578125 24.390625 -4.015625 C 18.515625 -7.460938 13.9375 -12.363281 10.65625 -18.71875 C 7.382812 -25.070312 5.75 -32.617188 5.75 -41.359375 C 5.75 -50.316406 7.460938 -57.976562 10.890625 -64.34375 C 14.316406 -70.707031 18.957031 -75.578125 24.8125 -78.953125 C 30.664062 -82.328125 37.234375 -84.015625 44.515625 -84.015625 C 50.773438 -84.015625 56.4375 -82.828125 61.5 -80.453125 C 66.570312 -78.078125 70.726562 -74.789062 73.96875 -70.59375 C 77.207031 -66.394531 79.207031 -61.5625 79.96875 -56.09375 Z M 62.15625 -56.09375 "/></g></g></g><g fill="rgb(100%, 100%, 100%)" fill-opacity="1"><g transform="translate(155.374968, 223.280011)"><g><path d="M 6.875 0 L 6.875 -62.15625 L 23.59375 -62.15625 L 23.59375 -51.3125 L 24.234375 -51.3125 C 25.367188 -55.164062 27.265625 -58.082031 29.921875 -60.0625 C 32.578125 -62.050781 35.660156 -63.046875 39.171875 -63.046875 C 40.847656 -63.046875 42.398438 -62.84375 43.828125 -62.4375 C 45.253906 -62.03125 46.535156 -61.476562 47.671875 -60.78125 L 42.484375 -46.53125 C 41.679688 -46.9375 40.800781 -47.28125 39.84375 -47.5625 C 38.882812 -47.851562 37.8125 -48 36.625 -48 C 33.144531 -48 30.195312 -46.8125 27.78125 -44.4375 C 25.363281 -42.0625 24.144531 -38.972656 24.125 -35.171875 L 24.125 0 Z M 6.875 0 "/></g></g></g><path stroke-linecap="butt" transform="matrix(3.760773, 0, 0, 3.75, 238.97432, 260.030549)" fill="none" stroke-linejoin="miter" d="M -0.000442398 0.00018706 L 11.968299 0.00018706 " stroke="rgb(0%, 0%, 0%)" stroke-width="1" stroke-opacity="1" stroke-miterlimit="4"/></svg>